<svg xmlns="http://www.w3.org/2000/svg" viewBox="0 0 203.5 203.5"><defs><style>.cls-1{fill:#1d1d1b;}.cls-2{fill:#fff;}</style></defs><title>DLTx Logo</title><g id="Layer_2" data-name="Layer 2"><g id="Layer_2-2" data-name="Layer 2"><g id="Your_Design" data-name="Your Design"><circle class="cls-1" cx="101.75" cy="101.75" r="101.75"/><path class="cls-2" d="M56.84,73.78H63a1.9,1.9,0,0,1-.44,1.2,1.62,1.62,0,0,0-.32,1.09l.07,47.78a13.51,13.51,0,0,0,.34,3.39H56.91a8.43,8.43,0,0,1-.35-2.7v-3.19a13,13,0,0,1-11.34,6.71c-7.09,0-14.59-5.92-14.59-19.48,0-14,8.45-19,15.44-19,5.08,0,9,2.55,10.77,6.32ZM36.23,107.64c0,12.09,6.18,15.32,10.34,15.32a9.67,9.67,0,0,0,9-7,21.85,21.85,0,0,0,.76-6.68c0-4.1-.16-6.15-.61-7.86a9.55,9.55,0,0,0-9.42-7.16C42.12,94.3,36.23,97.19,36.23,107.64Z"/><path class="cls-2" d="M88.61,73.85V122.6H99.43v4.64H71.9V122.6H82.79V78.5H72.39V73.85Z"/><path class="cls-2" d="M120.77,79.67c.28.82-.3,1.31-.46,2.17-.37,2-.93,8.65-.93,8.65h12v4.79H119.31q-.69,7.16-.7,14.36a57.22,57.22,0,0,0,.24,7.06c.59,4.4,3.44,5.92,6.18,5.92,2.26,0,5.1-1,8.22-3.35l1.8,4.58a20.56,20.56,0,0,1-11.73,4.1A9.79,9.79,0,0,1,115,124c-2.14-3-2.17-6.7-2.17-10q0-9.35.77-18.76H105l.07-4.72h8.73l.7-9.85Z"/><path class="cls-2" d="M172.93,90.49,161,108.37l13.5,18.87h-6.59L157.82,113l-9.58,14.27h-6.51l12.88-18.65-12.68-18.1h6.31l9.62,13.6L167,90.49Z"/></g></g></g></svg>